<svg width="26" height="25" viewBox="0 0 26 25" fill="none" xmlns="http://www.w3.org/2000/svg">
<g clip-path="url(#clip0_2758_6195)">
<path d="M8.33246 20.5057L6.07806 24.4283H14.8973C18.8921 24.4283 22.5803 22.2912 24.5732 18.8194L25.9619 16.4027H15.4203C12.4986 16.3936 9.79331 17.9627 8.33246 20.5057ZM24.6634 14.1212L19.9652 5.95124C17.9633 2.47946 14.2751 0.342285 10.2893 0.342285H7.50284L13.0667 10.0182C14.5276 12.5611 17.2328 14.1212 20.1546 14.1212H24.6634ZM6.19529 2.62374L1.49711 10.7937C-0.495782 14.2655 -0.495782 18.5398 1.49711 22.0026L2.88582 24.4283L8.44969 14.7614C9.91054 12.2185 9.91054 9.08937 8.44969 6.5464L6.19529 2.62374Z" fill="#5D5FEC"/>
</g>
<defs>
<clipPath id="clip0_2758_6195">
<rect width="25.9707" height="24.086" fill="white" transform="translate(0 0.342285)"/>
</clipPath>
</defs>
</svg>
