<svg width="141" height="25" viewBox="0 0 141 25" fill="none" xmlns="http://www.w3.org/2000/svg">
<path d="M41.4526 14.4137L39.6556 9.63988C39.5103 9.2708 39.3621 8.80189 39.2108 8.23314C39.1443 8.51751 39.0717 8.78071 38.993 9.02273C38.9144 9.2587 38.8418 9.46744 38.7752 9.64896L36.9782 14.4137H41.4526ZM45.4731 19.3147H43.8304C43.6428 19.3147 43.4916 19.2693 43.3766 19.1785C43.2617 19.0817 43.1739 18.9637 43.1134 18.8246L42.0243 15.9385H36.3974L35.3083 18.8246C35.2599 18.9456 35.1751 19.0575 35.0541 19.1604C34.9331 19.2632 34.7819 19.3147 34.6004 19.3147H32.9576L38.1399 6.24554H40.2909L45.4731 19.3147ZM60.9024 6.24554V19.3147H59.0327V10.3569C59.0327 10.2117 59.0358 10.0543 59.0418 9.88493C59.0539 9.70946 59.069 9.534 59.0872 9.35853L54.8851 17.1183C54.7218 17.439 54.4707 17.5993 54.1318 17.5993H53.8323C53.4874 17.5993 53.2364 17.439 53.079 17.1183L48.8134 9.34038C48.8316 9.51585 48.8437 9.69131 48.8497 9.86678C48.8618 10.0422 48.8679 10.2056 48.8679 10.3569V19.3147H46.9983V6.24554H48.5865C48.7741 6.24554 48.9193 6.2637 49.0222 6.3C49.125 6.33025 49.2188 6.43009 49.3035 6.5995L53.4965 14.1959C53.5873 14.3714 53.672 14.5529 53.7506 14.7405C53.8354 14.922 53.911 15.1095 53.9775 15.3032C54.0501 15.1095 54.1258 14.919 54.2044 14.7314C54.2891 14.5378 54.3769 14.3532 54.4676 14.1778L58.5971 6.5995C58.6818 6.43009 58.7756 6.33025 58.8785 6.3C58.9813 6.2637 59.1265 6.24554 59.3141 6.24554H60.9024ZM71.5487 17.5358V19.3147H63.9976V6.24554H66.1213V17.5358H71.5487ZM84.1794 8.47818C84.1129 8.58709 84.0433 8.66877 83.9707 8.72323C83.8981 8.77163 83.8073 8.79584 83.6984 8.79584C83.5835 8.79584 83.4534 8.74743 83.3082 8.65062C83.169 8.55381 82.9935 8.44793 82.7818 8.33297C82.576 8.21196 82.331 8.10305 82.0466 8.00624C81.7622 7.90339 81.4234 7.85196 81.0301 7.85196C80.6671 7.85196 80.3464 7.89733 80.0681 7.98809C79.7958 8.07885 79.5659 8.20591 79.3783 8.36927C79.1908 8.53264 79.0486 8.72625 78.9518 8.95012C78.861 9.16794 78.8156 9.40694 78.8156 9.66711C78.8156 9.99989 78.9034 10.2782 79.0788 10.5021C79.2543 10.7199 79.4842 10.9075 79.7686 11.0648C80.059 11.2221 80.3888 11.3613 80.7579 11.4823C81.1269 11.5972 81.5021 11.7213 81.8833 11.8544C82.2705 11.9875 82.6486 12.1387 83.0177 12.3082C83.3868 12.4776 83.7135 12.6924 83.9979 12.9525C84.2883 13.2127 84.5213 13.5304 84.6967 13.9055C84.8722 14.2806 84.9599 14.7374 84.9599 15.2759C84.9599 15.8568 84.8601 16.4013 84.6604 16.9096C84.4608 17.4178 84.1704 17.8625 83.7892 18.2437C83.414 18.6188 82.9482 18.9153 82.3915 19.1331C81.8409 19.351 81.2117 19.4599 80.5037 19.4599C80.0863 19.4599 79.6778 19.4175 79.2785 19.3328C78.8852 19.2541 78.5071 19.1422 78.144 18.997C77.7871 18.8457 77.4513 18.6642 77.1366 18.4525C76.822 18.2407 76.5407 18.0047 76.2926 17.7445L76.9097 16.7281C76.9642 16.6434 77.0338 16.5768 77.1185 16.5284C77.2032 16.48 77.297 16.4558 77.3998 16.4558C77.539 16.4558 77.6933 16.5223 77.8627 16.6555C78.0321 16.7825 78.2348 16.9247 78.4708 17.082C78.7128 17.2333 79.0032 17.3755 79.342 17.5086C79.6809 17.6356 80.0863 17.6992 80.5582 17.6992C81.3266 17.6992 81.9196 17.5116 82.337 17.1365C82.7606 16.7613 82.9724 16.244 82.9724 15.5845C82.9724 15.2154 82.8846 14.9159 82.7092 14.686C82.5337 14.45 82.3007 14.2534 82.0103 14.0961C81.7259 13.9388 81.3992 13.8057 81.0301 13.6968C80.6611 13.5878 80.2859 13.4729 79.9047 13.3519C79.5236 13.2248 79.1484 13.0796 78.7793 12.9162C78.4103 12.7468 78.0805 12.529 77.7901 12.2628C77.5057 11.9905 77.2758 11.6577 77.1003 11.2644C76.9249 10.8651 76.8371 10.369 76.8371 9.77602C76.8371 9.30408 76.9279 8.84726 77.1094 8.40558C77.297 7.96389 77.5662 7.57363 77.9171 7.2348C78.2741 6.88992 78.7128 6.61463 79.2331 6.40891C79.7535 6.20319 80.3464 6.10033 81.012 6.10033C81.7622 6.10033 82.449 6.21832 83.0722 6.45429C83.7014 6.69026 84.243 7.02606 84.6967 7.4617L84.1794 8.47818ZM93.3994 11.8725C93.3389 11.9512 93.2814 12.0117 93.227 12.054C93.1725 12.0964 93.0939 12.1176 92.991 12.1176C92.8881 12.1176 92.7792 12.0813 92.6643 12.0087C92.5554 11.9361 92.4223 11.8574 92.2649 11.7727C92.1137 11.6819 91.9291 11.6002 91.7113 11.5276C91.4935 11.455 91.2212 11.4187 90.8945 11.4187C90.471 11.4187 90.0989 11.4944 89.7782 11.6456C89.4636 11.7969 89.1973 12.0147 88.9795 12.2991C88.7678 12.5774 88.6074 12.9193 88.4985 13.3246C88.3956 13.724 88.3442 14.1747 88.3442 14.6769C88.3442 15.1973 88.4017 15.6601 88.5167 16.0655C88.6316 16.4709 88.795 16.8128 89.0067 17.0911C89.2246 17.3694 89.4847 17.5812 89.7873 17.7264C90.0958 17.8716 90.4407 17.9442 90.8219 17.9442C91.197 17.9442 91.5026 17.8988 91.7386 17.8081C91.9745 17.7173 92.1712 17.6175 92.3285 17.5086C92.4858 17.3997 92.6189 17.2998 92.7278 17.2091C92.8428 17.1183 92.9638 17.0729 93.0908 17.0729C93.2482 17.0729 93.3692 17.1334 93.4539 17.2545L94.0075 17.9714C93.7836 18.2437 93.5356 18.4736 93.2633 18.6612C92.991 18.8488 92.7036 19.0031 92.4011 19.1241C92.0986 19.239 91.7839 19.3207 91.4572 19.3691C91.1305 19.4236 90.8007 19.4508 90.4679 19.4508C89.8931 19.4508 89.3546 19.3449 88.8525 19.1331C88.3563 18.9153 87.9207 18.6037 87.5455 18.1983C87.1765 17.7869 86.883 17.2877 86.6652 16.7008C86.4534 16.1079 86.3475 15.4332 86.3475 14.6769C86.3475 13.9932 86.4444 13.3609 86.638 12.7801C86.8316 12.1932 87.1129 11.688 87.482 11.2644C87.8571 10.8409 88.32 10.5112 88.8706 10.2752C89.4212 10.0332 90.0565 9.91216 90.7765 9.91216C91.4481 9.91216 92.0381 10.0211 92.5463 10.2389C93.0606 10.4567 93.5174 10.7653 93.9167 11.1646L93.3994 11.8725ZM100.523 15.2669C99.8275 15.2911 99.2406 15.3485 98.7626 15.4393C98.2846 15.524 97.8974 15.6359 97.6009 15.7751C97.3045 15.9082 97.0897 16.0686 96.9566 16.2561C96.8295 16.4437 96.766 16.6494 96.766 16.8733C96.766 17.0911 96.7992 17.2787 96.8658 17.436C96.9384 17.5872 97.0352 17.7143 97.1562 17.8171C97.2833 17.914 97.4285 17.9866 97.5919 18.035C97.7613 18.0773 97.9458 18.0985 98.1455 18.0985C98.6537 18.0985 99.0894 18.0047 99.4524 17.8171C99.8215 17.6235 100.178 17.3452 100.523 16.9822V15.2669ZM95.3501 11.3461C96.3969 10.372 97.6433 9.88493 99.0894 9.88493C99.6218 9.88493 100.094 9.97266 100.505 10.1481C100.923 10.3175 101.271 10.5596 101.549 10.8742C101.833 11.1888 102.048 11.5639 102.193 11.9996C102.345 12.4292 102.42 12.9072 102.42 13.4336V19.3147H101.549C101.361 19.3147 101.219 19.2874 101.122 19.233C101.026 19.1725 100.944 19.0545 100.877 18.879L100.687 18.1257C100.451 18.3375 100.218 18.5281 99.9879 18.6975C99.7579 18.8609 99.5189 19 99.2709 19.115C99.0289 19.2299 98.7657 19.3147 98.4813 19.3691C98.203 19.4296 97.8944 19.4599 97.5556 19.4599C97.1804 19.4599 96.8295 19.4084 96.5028 19.3056C96.1821 19.2027 95.9038 19.0484 95.6678 18.8427C95.4318 18.6309 95.2443 18.3708 95.1051 18.0622C94.972 17.7536 94.9054 17.3906 94.9054 16.9731C94.9054 16.6161 94.9992 16.2682 95.1868 15.9294C95.3804 15.5906 95.695 15.288 96.1307 15.0218C96.5723 14.7495 97.1502 14.5257 97.8641 14.3502C98.5841 14.1747 99.4705 14.0749 100.523 14.0507V13.4336C100.523 12.768 100.381 12.2719 100.097 11.9451C99.8124 11.6184 99.3949 11.455 98.8443 11.455C98.4692 11.455 98.1546 11.5034 97.9004 11.6002C97.6463 11.691 97.4255 11.7908 97.2379 11.8997C97.0503 12.0087 96.8839 12.1115 96.7387 12.2083C96.5935 12.2991 96.4392 12.3445 96.2759 12.3445C96.1428 12.3445 96.0278 12.3112 95.931 12.2446C95.8402 12.172 95.7646 12.0843 95.7041 11.9814L95.3501 11.3461ZM106.53 11.2826C106.73 11.0769 106.936 10.8923 107.147 10.729C107.365 10.5596 107.595 10.4143 107.837 10.2933C108.079 10.1723 108.336 10.0785 108.609 10.012C108.881 9.94543 109.177 9.91216 109.498 9.91216C110.006 9.91216 110.451 9.99686 110.832 10.1663C111.219 10.3357 111.543 10.5747 111.803 10.8833C112.069 11.1918 112.269 11.5639 112.402 11.9996C112.535 12.4292 112.602 12.9041 112.602 13.4245V19.3147H110.66V13.4245C110.66 12.8013 110.514 12.3172 110.224 11.9724C109.94 11.6275 109.504 11.455 108.917 11.455C108.482 11.455 108.076 11.5549 107.701 11.7545C107.332 11.9542 106.984 12.2265 106.657 12.5714V19.3147H104.706V10.0574H105.886C106.152 10.0574 106.321 10.1814 106.394 10.4295L106.53 11.2826ZM116.705 11.2826C116.905 11.0769 117.11 10.8923 117.322 10.729C117.54 10.5596 117.77 10.4143 118.012 10.2933C118.254 10.1723 118.511 10.0785 118.783 10.012C119.056 9.94543 119.352 9.91216 119.673 9.91216C120.181 9.91216 120.626 9.99686 121.007 10.1663C121.394 10.3357 121.718 10.5747 121.978 10.8833C122.244 11.1918 122.444 11.5639 122.577 11.9996C122.71 12.4292 122.777 12.9041 122.777 13.4245V19.3147H120.834V13.4245C120.834 12.8013 120.689 12.3172 120.399 11.9724C120.114 11.6275 119.679 11.455 119.092 11.455C118.656 11.455 118.251 11.5549 117.876 11.7545C117.507 11.9542 117.159 12.2265 116.832 12.5714V19.3147H114.881V10.0574H116.061C116.327 10.0574 116.496 10.1814 116.569 10.4295L116.705 11.2826ZM131.127 13.6423C131.127 13.3156 131.079 13.013 130.982 12.7347C130.891 12.4503 130.755 12.2053 130.574 11.9996C130.392 11.7878 130.165 11.6245 129.893 11.5095C129.627 11.3885 129.318 11.328 128.967 11.328C128.259 11.328 127.703 11.5307 127.297 11.9361C126.892 12.3414 126.635 12.9102 126.526 13.6423H131.127ZM126.471 14.8403C126.496 15.3667 126.577 15.8235 126.716 16.2107C126.856 16.5919 127.04 16.9096 127.27 17.1637C127.506 17.4178 127.784 17.6084 128.105 17.7355C128.432 17.8565 128.795 17.917 129.194 17.917C129.575 17.917 129.905 17.8746 130.183 17.7899C130.462 17.6992 130.704 17.6024 130.909 17.4995C131.115 17.3906 131.291 17.2938 131.436 17.2091C131.581 17.1183 131.714 17.0729 131.835 17.0729C131.992 17.0729 132.113 17.1334 132.198 17.2545L132.752 17.9714C132.522 18.2437 132.262 18.4736 131.971 18.6612C131.681 18.8488 131.372 19.0031 131.046 19.1241C130.719 19.239 130.383 19.3207 130.038 19.3691C129.693 19.4236 129.357 19.4508 129.031 19.4508C128.389 19.4508 127.793 19.3449 127.243 19.1331C126.698 18.9153 126.223 18.5977 125.818 18.1802C125.419 17.7627 125.104 17.2454 124.874 16.6282C124.65 16.0111 124.538 15.3001 124.538 14.4954C124.538 13.8541 124.638 13.2551 124.838 12.6984C125.043 12.1418 125.334 11.6577 125.709 11.2463C126.09 10.8349 126.55 10.5112 127.089 10.2752C127.633 10.0332 128.247 9.91216 128.931 9.91216C129.5 9.91216 130.026 10.0059 130.51 10.1935C130.994 10.375 131.412 10.6443 131.763 11.0012C132.113 11.3582 132.386 11.7969 132.579 12.3172C132.779 12.8315 132.879 13.4184 132.879 14.0779C132.879 14.3805 132.846 14.5832 132.779 14.686C132.712 14.7889 132.591 14.8403 132.416 14.8403H126.471ZM136.541 11.7727C136.831 11.1858 137.182 10.7259 137.594 10.3932C138.005 10.0543 138.498 9.88493 139.073 9.88493C139.273 9.88493 139.46 9.90913 139.636 9.95753C139.811 9.99989 139.969 10.0664 140.108 10.1572L139.972 11.6275C139.947 11.7303 139.908 11.8029 139.854 11.8453C139.805 11.8816 139.739 11.8997 139.654 11.8997C139.563 11.8997 139.433 11.8846 139.264 11.8544C139.094 11.8181 138.916 11.7999 138.728 11.7999C138.456 11.7999 138.214 11.8392 138.002 11.9179C137.796 11.9966 137.609 12.1115 137.439 12.2628C137.276 12.414 137.131 12.5986 137.004 12.8164C136.877 13.0342 136.759 13.2823 136.65 13.5606V19.3147H134.699V10.0574H135.833C136.039 10.0574 136.181 10.0967 136.26 10.1754C136.338 10.248 136.393 10.378 136.423 10.5656L136.541 11.7727Z" fill="#323346"/>
<g clip-path="url(#clip0_2758_6193)">
<path d="M8.33246 20.5057L6.07806 24.4283H14.8973C18.8921 24.4283 22.5803 22.2912 24.5732 18.8194L25.9619 16.4027H15.4203C12.4986 16.3936 9.79331 17.9627 8.33246 20.5057ZM24.6634 14.1212L19.9652 5.95124C17.9633 2.47946 14.2751 0.342285 10.2893 0.342285H7.50284L13.0667 10.0182C14.5276 12.5611 17.2328 14.1212 20.1546 14.1212H24.6634ZM6.19529 2.62374L1.49711 10.7937C-0.495782 14.2655 -0.495782 18.5398 1.49711 22.0026L2.88582 24.4283L8.44969 14.7614C9.91054 12.2185 9.91054 9.08937 8.44969 6.5464L6.19529 2.62374Z" fill="#5D5FEC"/>
</g>
<defs>
<clipPath id="clip0_2758_6193">
<rect width="25.9707" height="24.086" fill="white" transform="translate(0 0.342285)"/>
</clipPath>
</defs>
</svg>
