<svg width="174" height="31" viewBox="0 0 174 31" fill="none" xmlns="http://www.w3.org/2000/svg">
<path d="M51.4234 18.1985L49.1907 12.3301C49.0103 11.8764 48.8261 11.3 48.6381 10.6008C48.5554 10.9504 48.4652 11.2739 48.3675 11.5714C48.2698 11.8615 48.1796 12.1181 48.0969 12.3412L45.8641 18.1985H51.4234ZM56.4189 24.2231H54.3778C54.1448 24.2231 53.9568 24.1673 53.814 24.0557C53.6712 23.9367 53.5622 23.7917 53.487 23.6206L52.1338 20.0728H45.1425L43.7893 23.6206C43.7291 23.7694 43.6239 23.907 43.4735 24.0334C43.3232 24.1598 43.1353 24.2231 42.9097 24.2231H40.8687L47.3075 8.1575H49.98L56.4189 24.2231Z" fill="white"/>
<path d="M75.5893 8.1575V24.2231H73.2664V13.2115C73.2664 13.033 73.2701 12.8396 73.2776 12.6313C73.2927 12.4156 73.3115 12.1999 73.334 11.9842L68.113 21.5232C67.9101 21.9174 67.5981 22.1145 67.1771 22.1145H66.805C66.3765 22.1145 66.0645 21.9174 65.869 21.5232L60.5691 11.9619C60.5917 12.1776 60.6067 12.3933 60.6142 12.609C60.6293 12.8247 60.6368 13.0255 60.6368 13.2115V24.2231H58.3138V8.1575H60.2872C60.5203 8.1575 60.7007 8.17982 60.8285 8.22444C60.9563 8.26163 61.0728 8.38436 61.178 8.59261L66.3877 17.9307C66.5005 18.1464 66.6058 18.3695 66.7035 18.6001C66.8087 18.8232 66.9027 19.0538 66.9854 19.2918C67.0756 19.0538 67.1696 18.8195 67.2673 18.589C67.3726 18.3509 67.4816 18.1241 67.5943 17.9084L72.7251 8.59261C72.8303 8.38436 72.9469 8.26163 73.0747 8.22444C73.2025 8.17982 73.3829 8.1575 73.6159 8.1575H75.5893Z" fill="white"/>
<path d="M88.8171 22.0364V24.2231H79.4351V8.1575H82.0738V22.0364H88.8171Z" fill="white"/>
<path d="M104.51 10.902C104.428 11.0359 104.341 11.1363 104.251 11.2033C104.161 11.2628 104.048 11.2925 103.913 11.2925C103.77 11.2925 103.608 11.233 103.428 11.114C103.255 10.995 103.037 10.8648 102.774 10.7235C102.518 10.5748 102.214 10.4409 101.861 10.3219C101.507 10.1954 101.086 10.1322 100.598 10.1322C100.147 10.1322 99.7481 10.188 99.4023 10.2996C99.064 10.4111 98.7783 10.5673 98.5453 10.7682C98.3122 10.969 98.1356 11.207 98.0153 11.4822C97.9025 11.7499 97.8461 12.0437 97.8461 12.3636C97.8461 12.7726 97.9551 13.1148 98.1731 13.39C98.3912 13.6577 98.6768 13.8883 99.0302 14.0817C99.391 14.2751 99.8007 14.4461 100.259 14.5949C100.718 14.7362 101.184 14.8887 101.658 15.0523C102.139 15.2159 102.609 15.4019 103.067 15.6101C103.526 15.8184 103.932 16.0824 104.285 16.4023C104.646 16.7221 104.935 17.1126 105.153 17.5737C105.371 18.0348 105.48 18.5964 105.48 19.2584C105.48 19.9724 105.356 20.6418 105.108 21.2666C104.86 21.8913 104.499 22.438 104.026 22.9066C103.56 23.3677 102.981 23.7322 102.289 23.9999C101.605 24.2677 100.823 24.4016 99.9435 24.4016C99.4248 24.4016 98.9174 24.3495 98.4212 24.2454C97.9326 24.1487 97.4627 24.0111 97.0117 23.8326C96.5681 23.6466 96.1509 23.4235 95.76 23.1632C95.3691 22.9029 95.0195 22.6128 94.7113 22.293L95.4781 21.0434C95.5457 20.9393 95.6322 20.8575 95.7374 20.798C95.8427 20.7385 95.9592 20.7087 96.087 20.7087C96.2599 20.7087 96.4516 20.7905 96.6621 20.9542C96.8726 21.1104 97.1244 21.2851 97.4176 21.4785C97.7183 21.6645 98.0792 21.8393 98.5002 22.0029C98.9211 22.1591 99.4248 22.2372 100.011 22.2372C100.966 22.2372 101.703 22.0066 102.221 21.5455C102.748 21.0843 103.011 20.4484 103.011 19.6377C103.011 19.184 102.902 18.8158 102.684 18.5332C102.466 18.2431 102.176 18.0014 101.815 17.808C101.462 17.6146 101.056 17.451 100.598 17.3171C100.139 17.1832 99.6729 17.0419 99.1993 16.8931C98.7257 16.737 98.2596 16.5584 97.801 16.3576C97.3424 16.1494 96.9327 15.8816 96.5719 15.5544C96.2186 15.2197 95.9329 14.8106 95.7149 14.3271C95.4969 13.8362 95.3879 13.2263 95.3879 12.4974C95.3879 11.9173 95.5006 11.3557 95.7262 10.8128C95.9592 10.2698 96.2937 9.79009 96.7298 9.37358C97.1733 8.94962 97.7183 8.61121 98.3648 8.35832C99.0114 8.10544 99.7481 7.979 100.575 7.979C101.507 7.979 102.36 8.12403 103.135 8.41411C103.917 8.70418 104.589 9.11697 105.153 9.65249L104.51 10.902Z" fill="white"/>
<path d="M115.966 15.0746C115.891 15.1713 115.82 15.2457 115.752 15.2977C115.684 15.3498 115.586 15.3758 115.459 15.3758C115.331 15.3758 115.196 15.3312 115.053 15.242C114.917 15.1527 114.752 15.056 114.557 14.9519C114.369 14.8403 114.139 14.7399 113.869 14.6507C113.598 14.5614 113.26 14.5168 112.854 14.5168C112.328 14.5168 111.865 14.6098 111.467 14.7957C111.076 14.9816 110.745 15.2494 110.474 15.599C110.211 15.9411 110.012 16.3613 109.877 16.8597C109.749 17.3506 109.685 17.9047 109.685 18.522C109.685 19.1617 109.757 19.7307 109.899 20.229C110.042 20.7273 110.245 21.1475 110.508 21.4897C110.779 21.8318 111.102 22.0921 111.478 22.2706C111.861 22.4492 112.29 22.5384 112.764 22.5384C113.23 22.5384 113.609 22.4826 113.903 22.3711C114.196 22.2595 114.44 22.1368 114.635 22.0029C114.831 21.869 114.996 21.7463 115.132 21.6347C115.274 21.5232 115.425 21.4674 115.583 21.4674C115.778 21.4674 115.929 21.5417 116.034 21.6905L116.722 22.5719C116.443 22.9066 116.135 23.1892 115.797 23.4198C115.459 23.6504 115.102 23.84 114.726 23.9888C114.35 24.1301 113.959 24.2305 113.553 24.29C113.147 24.3569 112.737 24.3904 112.324 24.3904C111.61 24.3904 110.941 24.2602 110.317 23.9999C109.7 23.7322 109.159 23.3491 108.693 22.8508C108.234 22.345 107.87 21.7314 107.599 21.0099C107.336 20.281 107.204 19.4517 107.204 18.522C107.204 17.6816 107.325 16.9043 107.565 16.1903C107.806 15.4688 108.155 14.8478 108.614 14.3271C109.08 13.8065 109.655 13.4011 110.339 13.111C111.023 12.8135 111.813 12.6648 112.707 12.6648C113.542 12.6648 114.275 12.7987 114.906 13.0664C115.545 13.3342 116.113 13.7135 116.609 14.2044L115.966 15.0746Z" fill="white"/>
<path d="M124.817 19.2472C123.953 19.277 123.224 19.3476 122.63 19.4592C122.036 19.5633 121.555 19.7009 121.186 19.872C120.818 20.0356 120.551 20.2327 120.386 20.4633C120.228 20.6938 120.149 20.9467 120.149 21.2219C120.149 21.4897 120.19 21.7203 120.273 21.9136C120.363 22.0996 120.483 22.2558 120.634 22.3822C120.792 22.5012 120.972 22.5905 121.175 22.65C121.386 22.702 121.615 22.7281 121.863 22.7281C122.494 22.7281 123.036 22.6128 123.487 22.3822C123.945 22.1442 124.389 21.8021 124.817 21.3558V19.2472ZM118.39 14.4275C119.69 13.2301 121.239 12.6313 123.036 12.6313C123.697 12.6313 124.284 12.7392 124.795 12.9549C125.314 13.1631 125.746 13.4606 126.092 13.8474C126.445 14.2341 126.712 14.6953 126.892 15.2308C127.08 15.7589 127.174 16.3465 127.174 16.9936V24.2231H126.092C125.859 24.2231 125.682 24.1896 125.562 24.1226C125.441 24.0483 125.34 23.9032 125.257 23.6875L125.02 22.7615C124.727 23.0219 124.438 23.2561 124.152 23.4644C123.866 23.6652 123.569 23.8363 123.261 23.9776C122.961 24.1189 122.633 24.2231 122.28 24.29C121.934 24.3644 121.551 24.4016 121.13 24.4016C120.664 24.4016 120.228 24.3383 119.822 24.2119C119.423 24.0855 119.078 23.8958 118.784 23.6429C118.491 23.3826 118.258 23.0628 118.085 22.6834C117.92 22.3041 117.837 21.8579 117.837 21.3446C117.837 20.9058 117.954 20.4781 118.187 20.0616C118.427 19.6451 118.818 19.2732 119.36 18.946C119.908 18.6113 120.626 18.3361 121.513 18.1204C122.408 17.9047 123.509 17.782 124.817 17.7522V16.9936C124.817 16.1754 124.641 15.5655 124.287 15.1639C123.934 14.7622 123.415 14.5614 122.731 14.5614C122.265 14.5614 121.874 14.6209 121.558 14.7399C121.243 14.8515 120.968 14.9742 120.735 15.1081C120.502 15.242 120.296 15.3684 120.115 15.4874C119.935 15.599 119.743 15.6548 119.54 15.6548C119.375 15.6548 119.232 15.6139 119.112 15.532C118.999 15.4428 118.905 15.3349 118.83 15.2085L118.39 14.4275Z" fill="white"/>
<path d="M132.281 14.3494C132.529 14.0966 132.784 13.8697 133.048 13.6689C133.318 13.4606 133.604 13.2821 133.905 13.1334C134.205 12.9846 134.525 12.8693 134.863 12.7875C135.201 12.7057 135.57 12.6648 135.968 12.6648C136.6 12.6648 137.152 12.7689 137.626 12.9772C138.107 13.1854 138.509 13.4792 138.832 13.8585C139.163 14.2379 139.411 14.6953 139.577 15.2308C139.742 15.7589 139.825 16.3428 139.825 16.9824V24.2231H137.412V16.9824C137.412 16.2163 137.231 15.6213 136.87 15.1973C136.517 14.7734 135.976 14.5614 135.246 14.5614C134.705 14.5614 134.202 14.6841 133.735 14.9296C133.277 15.175 132.845 15.5097 132.439 15.9337V24.2231H130.014V12.8433H131.48C131.811 12.8433 132.021 12.9958 132.112 13.3007L132.281 14.3494Z" fill="white"/>
<path d="M144.923 14.3494C145.171 14.0966 145.426 13.8697 145.689 13.6689C145.96 13.4606 146.246 13.2821 146.546 13.1334C146.847 12.9846 147.167 12.8693 147.505 12.7875C147.843 12.7057 148.212 12.6648 148.61 12.6648C149.242 12.6648 149.794 12.7689 150.268 12.9772C150.749 13.1854 151.151 13.4792 151.474 13.8585C151.805 14.2379 152.053 14.6953 152.219 15.2308C152.384 15.7589 152.467 16.3428 152.467 16.9824V24.2231H150.053V16.9824C150.053 16.2163 149.873 15.6213 149.512 15.1973C149.159 14.7734 148.618 14.5614 147.888 14.5614C147.347 14.5614 146.843 14.6841 146.377 14.9296C145.919 15.175 145.487 15.5097 145.081 15.9337V24.2231H142.656V12.8433H144.122C144.453 12.8433 144.663 12.9958 144.754 13.3007L144.923 14.3494Z" fill="white"/>
<path d="M162.842 17.2502C162.842 16.8485 162.782 16.4766 162.662 16.1345C162.549 15.7849 162.38 15.4837 162.154 15.2308C161.929 14.9705 161.647 14.7697 161.308 14.6284C160.978 14.4796 160.594 14.4052 160.158 14.4052C159.279 14.4052 158.587 14.6544 158.083 15.1527C157.58 15.651 157.26 16.3502 157.125 17.2502H162.842ZM157.057 18.7228C157.087 19.3699 157.189 19.9315 157.362 20.4075C157.535 20.8761 157.764 21.2666 158.049 21.5789C158.343 21.8913 158.688 22.1256 159.087 22.2818C159.493 22.4306 159.944 22.5049 160.44 22.5049C160.914 22.5049 161.323 22.4529 161.669 22.3487C162.015 22.2372 162.316 22.1182 162.571 21.9917C162.827 21.8578 163.045 21.7388 163.225 21.6347C163.406 21.5232 163.571 21.4674 163.722 21.4674C163.917 21.4674 164.067 21.5417 164.173 21.6905L164.86 22.5719C164.575 22.9066 164.252 23.1892 163.891 23.4198C163.53 23.6504 163.146 23.84 162.74 23.9888C162.335 24.1301 161.917 24.2305 161.489 24.29C161.06 24.3569 160.643 24.3904 160.237 24.3904C159.44 24.3904 158.7 24.2602 158.016 23.9999C157.339 23.7322 156.749 23.3417 156.245 22.8285C155.749 22.3153 155.358 21.6793 155.073 20.9207C154.794 20.162 154.655 19.2881 154.655 18.2989C154.655 17.5105 154.779 16.7741 155.027 16.0899C155.283 15.4056 155.644 14.8106 156.11 14.3048C156.584 13.799 157.155 13.4011 157.824 13.111C158.501 12.8135 159.264 12.6648 160.113 12.6648C160.82 12.6648 161.474 12.7801 162.075 13.0106C162.677 13.2338 163.195 13.5648 163.631 14.0036C164.067 14.4424 164.406 14.9816 164.646 15.6213C164.894 16.2535 165.018 16.975 165.018 17.7857C165.018 18.1576 164.977 18.4067 164.894 18.5332C164.812 18.6596 164.661 18.7228 164.443 18.7228H157.057Z" fill="white"/>
<path d="M169.568 14.9519C169.929 14.2304 170.365 13.6652 170.876 13.2561C171.388 12.8396 172 12.6313 172.714 12.6313C172.963 12.6313 173.196 12.6611 173.414 12.7206C173.632 12.7726 173.827 12.8544 174 12.966L173.831 14.7734C173.801 14.8998 173.752 14.9891 173.684 15.0411C173.624 15.0858 173.541 15.1081 173.436 15.1081C173.323 15.1081 173.162 15.0895 172.951 15.0523C172.741 15.0077 172.519 14.9854 172.286 14.9854C171.948 14.9854 171.647 15.0337 171.384 15.1304C171.128 15.2271 170.895 15.3684 170.685 15.5544C170.482 15.7403 170.301 15.9671 170.143 16.2349C169.986 16.5027 169.839 16.8076 169.704 17.1498V24.2231H167.279V12.8433H168.689C168.944 12.8433 169.121 12.8916 169.219 12.9883C169.317 13.0776 169.384 13.2375 169.422 13.4681L169.568 14.9519Z" fill="white"/>
<path d="M10.644 25.4909L7.76337 30.45H19.0325C24.137 30.45 28.8498 27.7482 31.3963 23.3591L33.1708 20.3038H19.7008C15.9675 20.2924 12.5107 22.276 10.644 25.4909ZM31.5115 17.4195L25.5082 7.09094C22.9502 2.70185 18.2374 0 13.1444 0H9.58394L16.6934 12.2324C18.5601 15.4473 22.0169 17.4195 25.7502 17.4195H31.5115ZM7.91316 2.88426L1.90987 13.2129C-0.636625 17.602 -0.636625 23.0057 1.90987 27.3834L3.68436 30.45L10.7938 18.229C12.6605 15.0141 12.6605 11.0582 10.7938 7.84336L7.91316 2.88426Z" fill="white"/>
</svg>
