<svg width="117" height="102" viewBox="0 0 117 102" fill="none" xmlns="http://www.w3.org/2000/svg">
<g opacity="0.74">
<path fill-rule="evenodd" clip-rule="evenodd" d="M66.602 86.2998H15.3195C11.71 86.2998 8.75537 83.3365 8.75537 79.7148V6.58341C8.75537 2.96175 11.71 -8.01086e-05 15.3195 -8.01086e-05H66.602C70.213 -8.01086e-05 73.1676 2.96175 73.1676 6.58341V79.7148C73.1676 83.3365 70.213 86.2998 66.602 86.2998Z" fill="#E0E2EE"/>
<path fill-rule="evenodd" clip-rule="evenodd" d="M62.2246 89.4266H10.942C7.33251 89.4266 4.37793 86.4633 4.37793 82.8416V9.71021C4.37793 6.08856 7.33251 3.12673 10.942 3.12673H62.2246C65.8356 3.12673 68.7902 6.08856 68.7902 9.71021V82.8416C68.7902 86.4633 65.8356 89.4266 62.2246 89.4266Z" fill="#E8EBF2"/>
<path fill-rule="evenodd" clip-rule="evenodd" d="M57.9662 91.895H6.57767C2.96069 91.895 0 88.944 0 85.3373V12.5087C0 8.90202 2.96069 5.95246 6.57767 5.95246H57.9662C61.5847 5.95246 64.5454 8.90202 64.5454 12.5087V85.3373C64.5454 88.944 61.5847 91.895 57.9662 91.895Z" fill="#D8DBEA"/>
<path fill-rule="evenodd" clip-rule="evenodd" d="M57.9662 91.895H6.57767C2.96069 91.895 0 88.944 0 85.3373V12.5087C0 8.90202 2.96069 5.95246 6.57767 5.95246H57.9662C61.5847 5.95246 64.5454 8.90202 64.5454 12.5087V85.3373C64.5454 88.944 61.5847 91.895 57.9662 91.895Z" fill="#F1F2F7"/>
<path fill-rule="evenodd" clip-rule="evenodd" d="M50.5593 28.1412H12.6026C11.5186 28.1412 10.6313 27.2971 10.6313 26.2658C10.6313 25.2331 11.5186 24.389 12.6026 24.389H50.5593C51.6433 24.389 52.5306 25.2331 52.5306 26.2658C52.5306 27.2971 51.6433 28.1412 50.5593 28.1412Z" fill="#E0E2EE"/>
<path fill-rule="evenodd" clip-rule="evenodd" d="M50.5593 39.3977H12.6026C11.5186 39.3977 10.6313 38.5536 10.6313 37.5223C10.6313 36.4897 11.5186 35.6455 12.6026 35.6455H50.5593C51.6433 35.6455 52.5306 36.4897 52.5306 37.5223C52.5306 38.5536 51.6433 39.3977 50.5593 39.3977Z" fill="#E0E2EE"/>
<path fill-rule="evenodd" clip-rule="evenodd" d="M50.5593 50.6542H12.6026C11.5186 50.6542 10.6313 49.8101 10.6313 48.7788C10.6313 47.7476 11.5186 46.902 12.6026 46.902H50.5593C51.6433 46.902 52.5306 47.7476 52.5306 48.7788C52.5306 49.8101 51.6433 50.6542 50.5593 50.6542Z" fill="#E0E2EE"/>
<path fill-rule="evenodd" clip-rule="evenodd" d="M50.5593 61.9107H12.6026C11.5186 61.9107 10.6313 61.0666 10.6313 60.0353C10.6313 59.0027 11.5186 58.1585 12.6026 58.1585H50.5593C51.6433 58.1585 52.5306 59.0027 52.5306 60.0353C52.5306 61.0666 51.6433 61.9107 50.5593 61.9107Z" fill="#E0E2EE"/>
<path fill-rule="evenodd" clip-rule="evenodd" d="M32.4154 73.1672H12.611C11.5224 73.1672 10.6313 72.3231 10.6313 71.2918C10.6313 70.2592 11.5224 69.415 12.611 69.415H32.4154C33.504 69.415 34.3951 70.2592 34.3951 71.2918C34.3951 72.3231 33.504 73.1672 32.4154 73.1672Z" fill="#E0E2EE"/>
<path fill-rule="evenodd" clip-rule="evenodd" d="M72.389 58.6192C64.7991 66.2077 53.0491 67.0638 44.5187 61.2049C43.4286 60.4427 42.3909 59.5867 41.4233 58.6192C40.9252 58.1227 40.4557 57.6104 40.0132 57.0709C39.1284 55.9937 38.3533 54.8448 37.7183 53.6578C36.5995 51.6528 35.8388 49.5254 35.4234 47.3263C34.0833 40.4299 36.087 33.0069 41.4233 27.6731C46.7723 22.3235 54.1966 20.3328 61.0941 21.6599C63.292 22.088 65.4214 22.8486 67.4267 23.9545C68.6155 24.6037 69.7487 25.3786 70.8277 26.2633C71.3656 26.7041 71.8781 27.1751 72.3746 27.6731C73.3438 28.6406 74.2128 29.6765 74.9608 30.7681C80.8223 39.2954 79.9645 51.045 72.389 58.6192Z" fill="white" fill-opacity="0.1"/>
<path fill-rule="evenodd" clip-rule="evenodd" d="M70.2651 57.1245C62.3689 65.0221 49.5725 65.0207 41.6749 57.1245C33.7875 49.2371 33.7875 36.4392 41.6852 28.543C49.5725 20.6557 62.3689 20.6557 70.2563 28.543C78.1525 36.4392 78.1525 49.2371 70.2651 57.1245ZM74.3175 24.4863C64.1821 14.3508 47.7579 14.3508 37.6225 24.4863C27.4885 34.6202 27.4797 51.0547 37.6137 61.1902C46.8381 70.4117 61.2963 71.2433 71.4656 63.6719C72.4588 62.9313 73.4154 62.1012 74.3278 61.1902C75.2388 60.2777 76.069 59.3212 76.808 58.3279C84.3795 48.1572 83.5405 33.7093 74.3175 24.4863Z" fill="#E0E2EE"/>
<path fill-rule="evenodd" clip-rule="evenodd" d="M114.205 99.3958L113.779 99.8213C110.964 102.638 106.354 102.638 103.538 99.8213L77.5449 73.8283L88.2119 63.1613L114.205 89.1543C117.021 91.9709 117.021 96.5793 114.205 99.3958Z" fill="#5D5FEC"/>
<path fill-rule="evenodd" clip-rule="evenodd" d="M77.3685 57.5331L85.0496 65.2141L79.5965 70.6657L71.917 62.9846C72.9305 62.229 73.9051 61.3819 74.8377 60.4523C75.7673 59.5227 76.6144 58.5466 77.3685 57.5331Z" fill="#E0E2EE"/>
<path fill-rule="evenodd" clip-rule="evenodd" d="M113.816 88.8347L103.217 99.4323L101.309 97.5227L111.906 86.9251L113.816 88.8347Z" fill="#A28153"/>
<path fill-rule="evenodd" clip-rule="evenodd" d="M88.8017 63.5283L77.9123 74.4178L76.2944 72.8001L87.1838 61.9106L88.8017 63.5283Z" fill="#A28153"/>
<path fill-rule="evenodd" clip-rule="evenodd" d="M65.0376 25.8264L38.3325 52.5302C37.3268 50.7277 36.643 48.8151 36.271 46.8381L59.3452 23.7636C61.3209 24.1498 63.2351 24.8322 65.0376 25.8264Z" fill="white" fill-opacity="0.5"/>
<path fill-rule="evenodd" clip-rule="evenodd" d="M73.7931 32.1737L44.9219 59.4092C43.888 58.7285 42.9039 57.9625 41.9862 57.0967C41.5138 56.651 41.067 56.1939 40.6489 55.7112L69.8717 28.1411C70.3834 28.5369 70.8694 28.9584 71.3404 29.4041C72.2581 30.2699 73.0837 31.1968 73.7931 32.1737Z" fill="white" fill-opacity="0.5"/>
</g>
</svg>
