<svg width="12" height="14" viewBox="0 0 12 14" fill="none" xmlns="http://www.w3.org/2000/svg">
<path d="M1.7 2.76471C1.7 2.80701 1.67405 2.75269 1.83991 2.61264C2.00253 2.47533 2.27934 2.32014 2.68267 2.17609C3.48323 1.89018 4.63522 1.7 5.94118 1.7V0.3C4.51819 0.3 3.1996 0.504868 2.2118 0.857651C1.72095 1.03295 1.27415 1.25802 0.936696 1.54296C0.602485 1.82517 0.3 2.23509 0.3 2.76471H1.7ZM5.94118 1.7C7.24713 1.7 8.39912 1.89018 9.19968 2.17609C9.60301 2.32014 9.87983 2.47533 10.0424 2.61264C10.2083 2.75269 10.1824 2.80701 10.1824 2.76471H11.5824C11.5824 2.23509 11.2799 1.82517 10.9457 1.54296C10.6082 1.25802 10.1614 1.03295 9.67055 0.857651C8.68276 0.504868 7.36416 0.3 5.94118 0.3V1.7ZM10.1824 5.58824C10.1824 5.54593 10.2083 5.60025 10.0424 5.7403C9.87983 5.87761 9.60301 6.03281 9.19968 6.17685C8.39912 6.46277 7.24713 6.65294 5.94118 6.65294V8.05294C7.36416 8.05294 8.68276 7.84807 9.67055 7.49529C10.1614 7.31999 10.6082 7.09492 10.9457 6.80998C11.2799 6.52778 11.5824 6.11785 11.5824 5.58824H10.1824ZM5.94118 6.65294C4.63522 6.65294 3.48323 6.46277 2.68267 6.17685C2.27934 6.03281 2.00253 5.87761 1.83991 5.7403C1.67405 5.60025 1.7 5.54593 1.7 5.58824H0.3C0.3 6.11785 0.602485 6.52778 0.936696 6.80998C1.27415 7.09492 1.72095 7.31999 2.2118 7.49529C3.1996 7.84807 4.51819 8.05294 5.94118 8.05294V6.65294ZM10.1824 2.76471V11.2353H11.5824V2.76471H10.1824ZM0.3 2.76471V11.2353H1.7V2.76471H0.3ZM10.1824 11.2353C10.1824 11.193 10.2083 11.2473 10.0424 11.3874C9.87983 11.5247 9.60301 11.6799 9.19968 11.8239C8.39912 12.1098 7.24713 12.3 5.94118 12.3V13.7C7.36416 13.7 8.68276 13.4951 9.67055 13.1423C10.1614 12.967 10.6082 12.742 10.9457 12.457C11.2799 12.1748 11.5824 11.7649 11.5824 11.2353H10.1824ZM5.94118 12.3C4.63522 12.3 3.48323 12.1098 2.68267 11.8239C2.27934 11.6799 2.00253 11.5247 1.83991 11.3874C1.67405 11.2473 1.7 11.193 1.7 11.2353H0.3C0.3 11.7649 0.602485 12.1748 0.936696 12.457C1.27415 12.742 1.72095 12.967 2.2118 13.1423C3.1996 13.4951 4.51819 13.7 5.94118 13.7V12.3Z" fill="#5D5FEC"/>
<path opacity="0.3" d="M10.1824 2.76471C10.1824 2.72241 10.2083 2.77672 10.0424 2.91677C9.87983 3.05409 9.60301 3.20928 9.19968 3.35333C8.39912 3.63924 7.24713 3.82942 5.94118 3.82942V5.22942C7.36416 5.22942 8.68276 5.02455 9.67055 4.67176C10.1614 4.49646 10.6082 4.27139 10.9457 3.98645C11.2799 3.70425 11.5824 3.29432 11.5824 2.76471H10.1824ZM5.94118 3.82942C4.63522 3.82942 3.48323 3.63924 2.68267 3.35333C2.27934 3.20928 2.00253 3.05409 1.83991 2.91677C1.67405 2.77672 1.7 2.72241 1.7 2.76471H0.3C0.3 3.29432 0.602485 3.70425 0.936696 3.98645C1.27415 4.27139 1.72095 4.49646 2.2118 4.67176C3.1996 5.02455 4.51819 5.22942 5.94118 5.22942V3.82942ZM10.1824 8.41177C10.1824 8.36947 10.2083 8.42378 10.0424 8.56383C9.87983 8.70114 9.60301 8.85634 9.19968 9.00038C8.39912 9.2863 7.24713 9.47647 5.94118 9.47647V10.8765C7.36416 10.8765 8.68276 10.6716 9.67055 10.3188C10.1614 10.1435 10.6082 9.91845 10.9457 9.63351C11.2799 9.35131 11.5824 8.94138 11.5824 8.41177H10.1824ZM5.94118 9.47647C4.63522 9.47647 3.48323 9.2863 2.68267 9.00038C2.27934 8.85634 2.00253 8.70114 1.83991 8.56383C1.67405 8.42378 1.7 8.36947 1.7 8.41177H0.3C0.3 8.94138 0.602485 9.35131 0.936696 9.63351C1.27415 9.91845 1.72095 10.1435 2.2118 10.3188C3.1996 10.6716 4.51819 10.8765 5.94118 10.8765V9.47647Z" fill="#5D5FEC"/>
</svg>
