<svg width="13" height="14" viewBox="0 0 13 14" fill="none" xmlns="http://www.w3.org/2000/svg">
<circle r="1.8" transform="matrix(-1 0 0 1 6.62236 7)" stroke="#5D5FEC" stroke-width="1.4"/>
<path d="M9.32234 2.7625L8.97234 3.36872L8.97234 3.36872L9.32234 2.7625ZM9.32234 11.2373L8.97234 10.6311L8.97234 10.6311L9.32234 11.2373ZM3.92227 11.2373L4.27227 10.6311L4.27227 10.6311L3.92227 11.2373ZM3.92227 2.7625L3.57227 2.15628L3.57227 2.15628L3.92227 2.7625ZM4.71184 1.82456L4.05467 1.58345L4.71184 1.82456ZM2.83075 11.0062L2.90579 11.7022L2.83075 11.0062ZM1.9211 10.7285L1.37293 11.1638L1.9211 10.7285ZM5.36494 12.868L5.21896 13.5526L5.36494 12.868ZM8.53273 12.1754L7.87554 11.9343L8.53273 12.1754ZM7.87967 12.868L8.02566 13.5526L7.87967 12.868ZM11.3235 10.7285L10.7753 10.2931L11.3235 10.7285ZM10.4139 11.0062L10.3388 11.7022L10.4139 11.0062ZM12.1971 4.77712L12.8472 4.51765L12.1971 4.77712ZM11.8895 5.79015L12.4077 6.2608L11.8895 5.79015ZM10.4138 2.99357L10.3388 2.2976L10.4138 2.99357ZM11.3233 3.27131L11.8715 2.83596L11.3233 3.27131ZM11.8895 8.20985L11.3714 8.6805L11.8895 8.20985ZM8.53278 1.82456L7.87561 2.06567L8.53278 1.82456ZM7.87561 2.06567C8.07008 2.59573 8.44535 3.06446 8.97234 3.36872L9.67234 2.15628C9.43972 2.02198 9.27568 1.81713 9.18994 1.58345L7.87561 2.06567ZM8.97234 3.36872C9.44866 3.64372 9.97988 3.74439 10.4888 3.68954L10.3388 2.2976C10.1151 2.32171 9.88299 2.2779 9.67234 2.15628L8.97234 3.36872ZM12.8472 4.51765C12.6037 3.90745 12.2733 3.34182 11.8715 2.83596L10.7752 3.70667C11.0934 4.10732 11.3546 4.55471 11.5469 5.03658L12.8472 4.51765ZM12.1223 7C12.1223 6.71494 12.2298 6.45662 12.4077 6.2608L11.3714 5.3195C10.9686 5.76289 10.7223 6.35349 10.7223 7H12.1223ZM12.4077 7.7392C12.2298 7.54338 12.1223 7.28506 12.1223 7H10.7223C10.7223 7.64651 10.9686 8.23711 11.3714 8.6805L12.4077 7.7392ZM11.8717 11.1638C12.2734 10.658 12.6037 10.0925 12.8472 9.48235L11.5469 8.96342C11.3546 9.44522 11.0935 9.89254 10.7753 10.2931L11.8717 11.1638ZM9.67234 11.8435C9.883 11.7219 10.1151 11.6781 10.3388 11.7022L10.4889 10.3103C9.97996 10.2554 9.4487 10.356 8.97234 10.6311L9.67234 11.8435ZM9.18991 12.4164C9.27564 12.1827 9.4397 11.9778 9.67234 11.8435L8.97234 10.6311C8.44529 10.9354 8.07 11.4042 7.87554 11.9343L9.18991 12.4164ZM6.6223 13.7C7.10293 13.7 7.57249 13.6493 8.02566 13.5526L7.73369 12.1834C7.37591 12.2597 7.0042 12.3 6.6223 12.3V13.7ZM5.21896 13.5526C5.67212 13.6493 6.14168 13.7 6.6223 13.7V12.3C6.24041 12.3 5.8687 12.2597 5.51092 12.1834L5.21896 13.5526ZM3.57227 11.8435C3.80492 11.9778 3.96897 12.1827 4.0547 12.4164L5.36907 11.9343C5.17462 11.4042 4.79932 10.9354 4.27227 10.6311L3.57227 11.8435ZM2.90579 11.7022C3.12947 11.6781 3.36161 11.7219 3.57227 11.8435L4.27227 10.6311C3.79591 10.356 3.26465 10.2554 2.75571 10.3103L2.90579 11.7022ZM0.397404 9.48235C0.640893 10.0925 0.97125 10.658 1.37293 11.1638L2.46927 10.2931C2.15113 9.89255 1.88996 9.44522 1.69768 8.96342L0.397404 9.48235ZM1.1223 7C1.1223 7.28506 1.01479 7.54338 0.836921 7.7392L1.87324 8.6805C2.27598 8.23711 2.5223 7.64651 2.5223 7H1.1223ZM0.836921 6.2608C1.01479 6.45662 1.1223 6.71494 1.1223 7H2.5223C2.5223 6.35349 2.27598 5.76289 1.87324 5.3195L0.836921 6.2608ZM1.37312 2.83595C0.971354 3.34182 0.640931 3.90745 0.397404 4.51765L1.69768 5.03658C1.88999 4.55471 2.15121 4.10731 2.46942 3.70666L1.37312 2.83595ZM3.57227 2.15628C3.36163 2.2779 3.1295 2.32171 2.90584 2.2976L2.75582 3.68954C3.26473 3.74439 3.79595 3.64372 4.27227 3.36872L3.57227 2.15628ZM4.05467 1.58345C3.96894 1.81713 3.80489 2.02198 3.57227 2.15628L4.27227 3.36872C4.79926 3.06446 5.17453 2.59572 5.369 2.06567L4.05467 1.58345ZM6.6223 0.3C6.14165 0.3 5.67206 0.350727 5.21887 0.447369L5.51085 1.81658C5.86865 1.74028 6.24038 1.7 6.6223 1.7V0.3ZM8.02575 0.447372C7.57255 0.350728 7.10296 0.3 6.6223 0.3V1.7C7.00422 1.7 7.37596 1.74028 7.73376 1.81658L8.02575 0.447372ZM5.369 2.06567C5.40809 1.95913 5.45205 1.88506 5.4885 1.84275C5.52097 1.80506 5.52871 1.81277 5.51085 1.81658L5.21887 0.447369C4.52268 0.595831 4.19371 1.20447 4.05467 1.58345L5.369 2.06567ZM1.87324 5.3195C1.78644 5.22394 1.73389 5.13627 1.71137 5.07366C1.6915 5.01839 1.7055 5.01699 1.69768 5.03658L0.397404 4.51765C0.0987886 5.26588 0.540294 5.93423 0.836921 6.2608L1.87324 5.3195ZM2.75571 10.3103C2.64304 10.3224 2.55725 10.3159 2.50315 10.3019C2.45492 10.2895 2.45812 10.2791 2.46927 10.2931L1.37293 11.1638C1.81475 11.7201 2.50451 11.7455 2.90579 11.7022L2.75571 10.3103ZM5.51092 12.1834C5.52878 12.1872 5.52104 12.195 5.48857 12.1573C5.45212 12.1149 5.40815 12.0409 5.36907 11.9343L4.0547 12.4164C4.19373 12.7954 4.52269 13.4042 5.21896 13.5526L5.51092 12.1834ZM7.87554 11.9343C7.83646 12.0409 7.7925 12.1149 7.75604 12.1573C7.72357 12.195 7.71583 12.1872 7.73369 12.1834L8.02566 13.5526C8.72192 13.4042 9.05089 12.7954 9.18991 12.4164L7.87554 11.9343ZM10.7753 10.2931C10.7865 10.2791 10.7897 10.2895 10.7414 10.3019C10.6874 10.3159 10.6016 10.3224 10.4889 10.3103L10.3388 11.7022C10.7401 11.7455 11.4299 11.7201 11.8717 11.1638L10.7753 10.2931ZM11.5469 5.03658C11.5391 5.01699 11.5531 5.01839 11.5332 5.07366C11.5107 5.13627 11.4582 5.22394 11.3714 5.3195L12.4077 6.2608C12.7043 5.93423 13.1458 5.26588 12.8472 4.51765L11.5469 5.03658ZM1.69768 8.96342C1.7055 8.98301 1.6915 8.98161 1.71137 8.92634C1.73389 8.86373 1.78644 8.77606 1.87324 8.6805L0.836921 7.7392C0.540294 8.06577 0.0987884 8.73411 0.397404 9.48235L1.69768 8.96342ZM10.4888 3.68954C10.6014 3.6774 10.6872 3.68396 10.7413 3.69787C10.7895 3.71027 10.7863 3.7207 10.7752 3.70667L11.8715 2.83596C11.4297 2.27971 10.74 2.25436 10.3388 2.2976L10.4888 3.68954ZM2.46942 3.70666C2.45827 3.7207 2.45507 3.71027 2.5033 3.69787C2.55739 3.68396 2.64317 3.6774 2.75582 3.68954L2.90584 2.2976C2.50459 2.25436 1.81491 2.2797 1.37312 2.83595L2.46942 3.70666ZM11.3714 8.6805C11.4582 8.77606 11.5107 8.86373 11.5332 8.92634C11.5531 8.98161 11.5391 8.98301 11.5469 8.96342L12.8472 9.48235C13.1458 8.73412 12.7043 8.06577 12.4077 7.7392L11.3714 8.6805ZM9.18994 1.58345C9.0509 1.20448 8.72194 0.595835 8.02575 0.447372L7.73376 1.81658C7.7159 1.81278 7.72364 1.80506 7.75611 1.84275C7.79256 1.88506 7.83652 1.95913 7.87561 2.06567L9.18994 1.58345Z" fill="#5D5FEC"/>
</svg>
