<svg width="12" height="14" viewBox="0 0 12 14" fill="none" xmlns="http://www.w3.org/2000/svg">
<circle opacity="0.3" r="2.85714" transform="matrix(-1 0 0 1 6.00003 3.85714)" stroke="#5D5FEC" stroke-width="1.4"/>
<path d="M2.87081 13.2328L2.77181 12.5398L2.77181 12.5398L2.87081 13.2328ZM10.3 10.9534V11.893H11.7V10.9534H10.3ZM1.7 11.893V10.9534H0.3V11.893H1.7ZM9.50813 12.5798L9.22819 12.5398L9.0302 13.9257L9.31014 13.9657L9.50813 12.5798ZM2.77181 12.5398L2.49187 12.5798L2.68986 13.9657L2.9698 13.9257L2.77181 12.5398ZM9.22819 12.5398C7.08693 12.2339 4.91307 12.2339 2.77181 12.5398L2.9698 13.9257C4.97973 13.6386 7.02027 13.6386 9.0302 13.9257L9.22819 12.5398ZM2.2005 10.2432C4.6575 9.36566 7.3425 9.36566 9.7995 10.2432L10.2704 8.92472C7.50887 7.93847 4.49113 7.93847 1.72963 8.92472L2.2005 10.2432ZM0.3 11.893C0.3 13.1672 1.42851 14.1459 2.68986 13.9657L2.49187 12.5798C2.07393 12.6395 1.7 12.3152 1.7 11.893H0.3ZM10.3 11.893C10.3 12.3152 9.92607 12.6395 9.50813 12.5798L9.31014 13.9657C10.5715 14.1459 11.7 13.1672 11.7 11.893H10.3ZM11.7 10.9534C11.7 10.043 11.1277 9.23091 10.2704 8.92472L9.7995 10.2432C10.0996 10.3504 10.3 10.6347 10.3 10.9534H11.7ZM1.7 10.9534C1.7 10.6347 1.90036 10.3504 2.2005 10.2432L1.72963 8.92472C0.872294 9.23091 0.3 10.043 0.3 10.9534H1.7Z" fill="#5D5FEC"/>
</svg>
