<svg width="14" height="14" viewBox="0 0 14 14" fill="none" xmlns="http://www.w3.org/2000/svg">
<circle cx="6.06382" cy="6.06382" r="5.06382" stroke="#5D5FEC" stroke-width="1.4" stroke-linecap="round" stroke-linejoin="round"/>
<g opacity="0.3">
<path d="M4.16478 5.3638C3.77818 5.3638 3.46478 5.6772 3.46478 6.0638C3.46478 6.4504 3.77818 6.7638 4.16478 6.7638V5.3638ZM7.96265 6.7638C8.34925 6.7638 8.66265 6.4504 8.66265 6.0638C8.66265 5.6772 8.34925 5.3638 7.96265 5.3638V6.7638ZM7.96265 5.3638H4.16478V6.7638H7.96265V5.3638Z" fill="#5D5FEC"/>
<path d="M6.76372 4.16486C6.76372 3.77826 6.45032 3.46486 6.06372 3.46486C5.67712 3.46486 5.36372 3.77826 5.36372 4.16486L6.76372 4.16486ZM5.36372 7.96273C5.36372 8.34933 5.67712 8.66273 6.06372 8.66273C6.45032 8.66273 6.76372 8.34933 6.76372 7.96273L5.36372 7.96273ZM6.76372 7.96273L6.76372 4.16486L5.36372 4.16486L5.36372 7.96273L6.76372 7.96273Z" fill="#5D5FEC"/>
</g>
<path opacity="0.3" d="M9.54517 9.83507L12.7101 13" stroke="#5D5FEC" stroke-width="1.4" stroke-linecap="round" stroke-linejoin="round"/>
</svg>
